<svg width="340" height="66" viewBox="0 0 340 66" fill="none" xmlns="http://www.w3.org/2000/svg">
<path d="M29.1748 2.79006C26.1309 5.03396 25.3504 5.69738 25.3114 6.08762C25.2723 6.3803 25.8772 8.54616 26.6382 10.9071C27.6723 14.0876 28.1406 15.2974 28.4528 15.512C28.804 15.7462 29.7016 15.8047 33.487 15.8047C37.604 15.8047 38.1504 15.7657 38.5211 15.4535C39.0479 15.0242 41.7601 6.63396 41.5845 5.95103C41.526 5.71689 40.9992 5.17055 40.4528 4.76079C39.887 4.35104 38.1504 3.12177 36.6284 2.00957C35.087 0.897379 33.6235 -0.000181511 33.4089 -0.000181511C33.1748 -0.000181511 31.2626 1.26811 29.1748 2.79006Z" fill="url(#paint0_linear_1640_18782)"/>
<path d="M48.7847 11.5513C48.0042 12.0001 41.7603 16.644 41.5261 16.9367C41.3895 17.1123 41.2725 17.444 41.2725 17.6977C41.2725 18.4782 43.9847 26.4587 44.3554 26.7904C44.6676 27.083 45.3115 27.1221 49.5066 27.1221C53.8188 27.1221 54.3066 27.083 54.5993 26.7709C54.7749 26.5952 55.5359 24.4684 56.3164 22.0684C57.3895 18.7123 57.6822 17.5806 57.5456 17.2294C57.3505 16.7221 49.9554 11.3172 49.4676 11.3172C49.3115 11.3172 48.9993 11.4343 48.7847 11.5513Z" fill="url(#paint1_linear_1640_18782)"/>
<path d="M28.687 18.381C28.4724 18.4981 28.2382 18.6932 28.1602 18.8103C28.0626 18.9274 27.3797 20.9371 26.6187 23.2981C25.409 27.0834 25.2724 27.6298 25.4675 28.1176C25.7212 28.742 26.5407 29.3469 26.9114 29.2103C27.048 29.1517 27.7895 28.2152 28.57 27.142C29.3504 26.0493 30.1309 25.1713 30.287 25.1713C30.6382 25.1713 34.6382 28.0786 34.7748 28.4298C34.8334 28.5664 34.3065 29.4444 33.6236 30.381C31.9065 32.703 31.8285 32.8786 32.2187 33.2493C32.7261 33.7761 33.2919 33.9908 33.7797 33.8737C34.4041 33.7176 41.3895 28.6054 41.5456 28.1761C41.7602 27.6103 41.6626 27.22 40.2968 22.9664C39.2626 19.8249 38.8139 18.6737 38.5017 18.4396C38.1309 18.2054 37.3114 18.1469 33.5651 18.1469C30.5992 18.1664 28.9407 18.2249 28.687 18.381Z" fill="url(#paint2_linear_1640_18782)"/>
<path d="M29.1357 29.3068C26.0137 33.541 25.0771 34.9068 25.0771 35.18C25.0771 35.5117 26.2869 36.4873 26.6967 36.4873C26.9698 36.4873 32.1015 29.658 32.1015 29.3068C32.1015 29.1507 30.482 27.9019 30.2674 27.9019C30.2089 27.9019 29.7015 28.5458 29.1357 29.3068Z" fill="url(#paint3_linear_1640_18782)"/>
<path d="M23.3792 30.2443C22.8524 30.4589 16.2768 35.2589 15.9646 35.6686C15.828 35.8443 15.7109 36.1564 15.7109 36.3711C15.7109 36.5857 16.3353 38.6735 17.0768 41.015C18.1109 44.1955 18.5597 45.3272 18.8719 45.5613C19.2426 45.7955 20.0817 45.854 23.9256 45.854C28.0426 45.854 28.589 45.815 28.9597 45.5028C29.467 45.093 32.1597 36.8003 32.0036 36.1564C31.867 35.5906 31.1646 34.9272 30.6963 34.9272C30.4817 34.9272 29.8182 35.6491 28.9402 36.8199C27.6524 38.615 27.2817 39.0052 27.028 39.0247C26.8134 39.0247 22.8329 36.0589 22.6768 35.7857C22.5597 35.5711 22.95 34.8882 24.0036 33.4443C25.6231 31.1808 25.7012 30.8882 24.6085 30.3613C24.2378 30.1857 23.9061 30.0491 23.867 30.0686C23.8475 30.0686 23.6134 30.1467 23.3792 30.2443Z" fill="url(#paint4_linear_1640_18782)"/>
<path d="M3.24352 36.7413C2.83376 36.9364 2.54108 37.6388 1.31181 41.4632C0.199615 44.9364 -0.0930684 46.0486 0.0240048 46.4193C0.277663 47.1022 7.43864 52.273 8.12156 52.2925C8.49229 52.2925 9.70205 51.5315 12.024 49.8339C16.1411 46.8486 16.2972 46.6925 16.2972 46.0681C16.2972 45.19 13.5655 37.2096 13.1362 36.8193C12.785 36.5266 12.2581 36.4876 8.21912 36.4876C5.01913 36.4876 3.57522 36.5657 3.24352 36.7413Z" fill="url(#paint5_linear_1640_18782)"/>
<path d="M18.8926 48.6244C18.4633 49.1122 15.9072 56.9366 15.9072 57.7756C15.9072 58.0488 16.0633 58.4195 16.2584 58.5951C17.3902 59.6098 23.6926 63.9805 24.0438 64C24.278 64 25.9365 62.9268 27.8487 61.5415C31.595 58.8098 32.2975 58.2244 32.2975 57.7756C32.2975 57.0927 29.3706 48.6829 29.0389 48.4488C28.8048 48.2537 27.478 48.1951 24.0048 48.1951C19.3609 48.1951 19.2828 48.1951 18.8926 48.6244Z" fill="url(#paint6_linear_1640_18782)"/>
<path d="M82.0459 54.5V47.4688H94.8896C97.598 47.4688 99.6709 46.9271 101.108 45.8438C102.546 44.7396 103.265 43.1458 103.265 41.0625V41C103.265 39.625 102.931 38.4688 102.265 37.5312C101.598 36.5729 100.608 35.8542 99.2959 35.375C98.0042 34.8958 96.4001 34.6562 94.4834 34.6562H82.0459V28.25H93.3584C96.0251 28.25 98.0459 27.7188 99.4209 26.6562C100.817 25.5729 101.515 24.0625 101.515 22.125V22.0625C101.515 20.2708 100.9 18.8854 99.6709 17.9062C98.4417 16.9062 96.723 16.4062 94.5146 16.4062H82.0459V9.40625H96.9521C99.8063 9.40625 102.265 9.86458 104.327 10.7812C106.39 11.6979 107.983 13.0104 109.108 14.7188C110.233 16.4062 110.796 18.4062 110.796 20.7188V20.7812C110.796 22.4271 110.41 23.9583 109.64 25.375C108.89 26.7708 107.858 27.9375 106.546 28.875C105.233 29.7917 103.744 30.3646 102.077 30.5938V30.7812C104.181 30.9271 106.046 31.4896 107.671 32.4688C109.296 33.4271 110.567 34.6979 111.483 36.2812C112.421 37.8438 112.89 39.6146 112.89 41.5938V41.6562C112.89 44.2812 112.254 46.5521 110.983 48.4688C109.733 50.3854 107.942 51.875 105.608 52.9375C103.296 53.9792 100.525 54.5 97.2959 54.5H82.0459ZM77.3271 54.5V9.40625H86.7646V54.5H77.3271ZM117.671 54.5V21H126.796V54.5H117.671ZM122.233 16.6875C120.858 16.6875 119.702 16.2188 118.765 15.2812C117.827 14.3438 117.358 13.2292 117.358 11.9375C117.358 10.625 117.827 9.51042 118.765 8.59375C119.702 7.65625 120.858 7.1875 122.233 7.1875C123.608 7.1875 124.765 7.65625 125.702 8.59375C126.64 9.51042 127.108 10.625 127.108 11.9375C127.108 13.2292 126.64 14.3438 125.702 15.2812C124.765 16.2188 123.608 16.6875 122.233 16.6875ZM148.296 55.1875C144.9 55.1875 141.963 54.4896 139.483 53.0938C137.004 51.6979 135.088 49.6979 133.733 47.0938C132.379 44.4896 131.702 41.375 131.702 37.75V37.6875C131.702 34.0833 132.39 30.9896 133.765 28.4062C135.14 25.8021 137.067 23.8021 139.546 22.4062C142.025 21.0104 144.931 20.3125 148.265 20.3125C151.619 20.3125 154.535 21.0104 157.015 22.4062C159.515 23.7812 161.452 25.7708 162.827 28.375C164.202 30.9583 164.89 34.0625 164.89 37.6875V37.75C164.89 41.3958 164.202 44.5208 162.827 47.125C161.473 49.7292 159.556 51.7292 157.077 53.125C154.598 54.5 151.671 55.1875 148.296 55.1875ZM148.327 48.0312C149.806 48.0312 151.088 47.6354 152.171 46.8438C153.275 46.0312 154.119 44.8646 154.702 43.3438C155.306 41.8021 155.608 39.9375 155.608 37.75V37.6875C155.608 35.5208 155.306 33.6771 154.702 32.1562C154.098 30.6354 153.244 29.4792 152.14 28.6875C151.035 27.875 149.744 27.4688 148.265 27.4688C146.806 27.4688 145.525 27.875 144.421 28.6875C143.338 29.4792 142.494 30.6354 141.89 32.1562C141.285 33.6771 140.983 35.5208 140.983 37.6875V37.75C140.983 39.9375 141.275 41.8021 141.858 43.3438C142.463 44.8646 143.317 46.0312 144.421 46.8438C145.525 47.6354 146.827 48.0312 148.327 48.0312ZM190.702 55.2812C187.327 55.2812 184.296 54.75 181.608 53.6875C178.942 52.625 176.671 51.0833 174.796 49.0625C172.921 47.0208 171.483 44.5521 170.483 41.6562C169.483 38.7604 168.983 35.4792 168.983 31.8125V31.7812C168.983 26.9479 169.858 22.8125 171.608 19.375C173.358 15.9167 175.838 13.2604 179.046 11.4062C182.275 9.55208 186.088 8.625 190.483 8.625C194.108 8.625 197.306 9.27083 200.077 10.5625C202.848 11.8333 205.098 13.5833 206.827 15.8125C208.577 18.0417 209.702 20.5729 210.202 23.4062L210.296 23.8438H200.827L200.702 23.5312C199.952 21.3438 198.702 19.6458 196.952 18.4375C195.202 17.2292 193.056 16.625 190.515 16.625C188.035 16.625 185.9 17.2188 184.108 18.4062C182.338 19.5729 180.973 21.2812 180.015 23.5312C179.077 25.7812 178.608 28.5 178.608 31.6875V31.7188C178.608 34.1562 178.89 36.3438 179.452 38.2812C180.015 40.1979 180.827 41.8229 181.89 43.1562C182.973 44.4896 184.265 45.5104 185.765 46.2188C187.285 46.9271 188.983 47.2812 190.858 47.2812C192.9 47.2812 194.702 46.9062 196.265 46.1562C197.848 45.3854 199.088 44.3125 199.983 42.9375C200.9 41.5417 201.4 39.9167 201.483 38.0625L201.515 37.4062H191.202V30.375H210.702V35.5625C210.702 38.625 210.244 41.375 209.327 43.8125C208.431 46.25 207.119 48.3229 205.39 50.0312C203.681 51.7396 201.588 53.0417 199.108 53.9375C196.629 54.8333 193.827 55.2812 190.702 55.2812ZM216.39 54.5V9.40625H225.515V54.5H216.39ZM236.921 65.5312C236.025 65.5312 235.16 65.4896 234.327 65.4062C233.494 65.3229 232.806 65.2292 232.265 65.125V58.3438C232.598 58.4062 233.025 58.4688 233.546 58.5312C234.067 58.6146 234.66 58.6562 235.327 58.6562C236.702 58.6562 237.785 58.4271 238.577 57.9688C239.369 57.5104 239.963 56.7188 240.358 55.5938L240.765 54.5L228.921 21H238.952L246.515 49L245.296 47.1875H247.015L245.796 49L253.358 21H262.983L251.483 55.0938C250.608 57.7188 249.504 59.7917 248.171 61.3125C246.858 62.8333 245.275 63.9167 243.421 64.5625C241.567 65.2083 239.4 65.5312 236.921 65.5312ZM266.171 65.4375V21H275.296V26.8438H275.515C276.119 25.4896 276.91 24.3229 277.89 23.3438C278.89 22.3646 280.046 21.6146 281.358 21.0938C282.692 20.5729 284.15 20.3125 285.733 20.3125C288.567 20.3125 291.004 21.0104 293.046 22.4062C295.088 23.7812 296.66 25.7708 297.765 28.375C298.869 30.9792 299.421 34.0938 299.421 37.7188V37.75C299.421 41.375 298.869 44.4896 297.765 47.0938C296.681 49.6979 295.129 51.6979 293.108 53.0938C291.088 54.4896 288.671 55.1875 285.858 55.1875C284.275 55.1875 282.806 54.9271 281.452 54.4062C280.098 53.8854 278.921 53.1562 277.921 52.2188C276.921 51.2604 276.108 50.1146 275.483 48.7812H275.296V65.4375H266.171ZM282.733 47.625C284.254 47.625 285.567 47.2292 286.671 46.4375C287.775 45.625 288.629 44.4792 289.233 43C289.838 41.5208 290.14 39.7708 290.14 37.75V37.7188C290.14 35.6771 289.838 33.9167 289.233 32.4375C288.629 30.9583 287.765 29.8333 286.64 29.0625C285.535 28.2708 284.233 27.875 282.733 27.875C281.254 27.875 279.952 28.2812 278.827 29.0938C277.702 29.8854 276.827 31.0208 276.202 32.5C275.577 33.9583 275.265 35.7083 275.265 37.75V37.7812C275.265 39.7812 275.577 41.5208 276.202 43C276.848 44.4792 277.723 45.625 278.827 46.4375C279.952 47.2292 281.254 47.625 282.733 47.625ZM304.39 54.5V9.40625H313.515V26.7812H313.702C314.577 24.6979 315.879 23.1042 317.608 22C319.358 20.875 321.483 20.3125 323.983 20.3125C326.421 20.3125 328.515 20.8542 330.265 21.9375C332.015 23 333.358 24.5104 334.296 26.4688C335.254 28.4271 335.733 30.7604 335.733 33.4688V54.5H326.608V35.3438C326.608 33.0104 326.046 31.1875 324.921 29.875C323.817 28.5417 322.223 27.875 320.14 27.875C318.806 27.875 317.64 28.1979 316.64 28.8438C315.66 29.4688 314.89 30.3438 314.327 31.4688C313.785 32.5729 313.515 33.8542 313.515 35.3125V54.5H304.39Z" fill="white"/>
<defs>
<linearGradient id="paint0_linear_1640_18782" x1="38.7428" y1="2.2224" x2="30.6283" y2="14.8818" gradientUnits="userSpaceOnUse">
<stop stop-color="#51E0CF"/>
<stop offset="1" stop-color="#43A984"/>
</linearGradient>
<linearGradient id="paint1_linear_1640_18782" x1="54.7233" y1="13.5398" x2="46.6133" y2="26.2088" gradientUnits="userSpaceOnUse">
<stop stop-color="#51E0CF"/>
<stop offset="1" stop-color="#43A984"/>
</linearGradient>
<linearGradient id="paint2_linear_1640_18782" x1="38.791" y1="20.3628" x2="30.7014" y2="32.9863" gradientUnits="userSpaceOnUse">
<stop stop-color="#51E0CF"/>
<stop offset="1" stop-color="#43A984"/>
</linearGradient>
<linearGradient id="paint3_linear_1640_18782" x1="30.8721" y1="29.1093" x2="26.1304" y2="34.9841" gradientUnits="userSpaceOnUse">
<stop stop-color="#51E0CF"/>
<stop offset="1" stop-color="#43A984"/>
</linearGradient>
<linearGradient id="paint4_linear_1640_18782" x1="29.1574" y1="32.2869" x2="21.0592" y2="44.9476" gradientUnits="userSpaceOnUse">
<stop stop-color="#51E0CF"/>
<stop offset="1" stop-color="#43A984"/>
</linearGradient>
<linearGradient id="paint5_linear_1640_18782" x1="13.4448" y1="38.7102" x2="5.3333" y2="51.3759" gradientUnits="userSpaceOnUse">
<stop stop-color="#51E0CF"/>
<stop offset="1" stop-color="#43A984"/>
</linearGradient>
<linearGradient id="paint6_linear_1640_18782" x1="29.4288" y1="50.4177" x2="21.3367" y2="63.1253" gradientUnits="userSpaceOnUse">
<stop stop-color="#51E0CF"/>
<stop offset="1" stop-color="#43A984"/>
</linearGradient>
</defs>
</svg>
